<svg width="680" height="720" viewBox="260 140 680 720" fill="none" xmlns="http://www.w3.org/2000/svg">
  <defs>
    <linearGradient id="globeGrad" x1="350" y1="220" x2="850" y2="700" gradientUnits="userSpaceOnUse">
      <stop offset="0" stop-color="#6EE7F9"/>
      <stop offset="1" stop-color="#2563EB"/>
    </linearGradient>
  </defs>

  <g>
    <circle cx="600" cy="360" r="200" fill="url(#globeGrad)"/>

    <ellipse cx="600" cy="360" rx="160" ry="200" stroke="white" stroke-opacity="0.18" stroke-width="4"/>
    <ellipse cx="600" cy="360" rx="105" ry="200" stroke="white" stroke-opacity="0.18" stroke-width="4"/>
    <ellipse cx="600" cy="360" rx="55" ry="200" stroke="white" stroke-opacity="0.18" stroke-width="4"/>
    <ellipse cx="600" cy="360" rx="200" ry="80" stroke="white" stroke-opacity="0.18" stroke-width="4"/>
    <ellipse cx="600" cy="360" rx="200" ry="145" stroke="white" stroke-opacity="0.18" stroke-width="4"/>

    <path d="M475 230C530 270 560 330 560 360C560 390 530 450 475 490" stroke="white" stroke-width="10" stroke-linecap="round" stroke-opacity="0.92"/>
    <path d="M725 230C670 270 640 330 640 360C640 390 670 450 725 490" stroke="white" stroke-width="10" stroke-linecap="round" stroke-opacity="0.92"/>

  </g>

  <g fill="#111827">
    <text x="600" y="720"
          text-anchor="middle"
          font-family="Inter, SF Pro Display, Arial, sans-serif"
          font-size="176"
          font-weight="700"
          letter-spacing="-8">OOTP</text>

    <text x="600" y="808"
          text-anchor="middle"
          font-family="Inter, SF Pro Display, Arial, sans-serif"
          font-size="52"
          font-weight="600"
          letter-spacing="10">WORLD MODE</text>
  </g>

</svg>
